<?xml version="1.0" encoding="utf-8"?><svg viewBox="0 0 551.03 551.03" xmlns="http://www.w3.org/2000/svg" xmlns:xlink="http://www.w3.org/1999/xlink"><style>:root>svg{display:none}:root>svg:target{display:block}</style><svg fill="none" viewBox="0 0 256 396" id="border" xmlns="http://www.w3.org/2000/svg"><path d="M1.218 28.468L255.506.635l.158 366.675L1.376 394.781l-.08-182.539-.078-183.774z" stroke="#fff" stroke-width=".5"/></svg><svg fill="none" viewBox="0 0 242 300" id="border1" xmlns="http://www.w3.org/2000/svg"><path d="M2.55 24.49L1.128 299.67l239.515-23.27.345-275.159-113.037 11.067-.024-.248.024.248L2.55 24.491z" stroke="#fff" stroke-width=".5"/></svg><svg fill="none" viewBox="0 0 346 434" id="border2" xmlns="http://www.w3.org/2000/svg"><path d="M.477 36.225v396.969l344.553-34.46V.777L169.026 18.749h-.001L.477 36.225z" stroke="#fff" stroke-width=".5"/></svg><svg fill="#fff" viewBox="0 0 50 50" id="fb" xmlns="http://www.w3.org/2000/svg"><path d="M25 3C12.85 3 3 12.85 3 25c0 11.03 8.125 20.137 18.712 21.728V30.831h-5.443v-5.783h5.443V21.2c0-6.371 3.104-9.168 8.399-9.168 2.536 0 3.877.188 4.512.274v5.048h-3.612c-2.248 0-3.033 2.131-3.033 4.533v3.161h6.588l-.894 5.783h-5.694v15.944C38.716 45.318 47 36.137 47 25c0-12.15-9.85-22-22-22z"/></svg><svg viewBox="0 0 551.034 551.034" id="inst" xmlns="http://www.w3.org/2000/svg"><linearGradient id="ea" gradientUnits="userSpaceOnUse" x1="275.517" y1="4.571" x2="275.517" y2="549.72" gradientTransform="matrix(1 0 0 -1 0 554)"><stop offset="0" stop-color="#fff"/><stop offset=".3" stop-color="#fff"/><stop offset=".6" stop-color="#fff"/><stop offset="1" stop-color="#fff"/></linearGradient><path d="M386.878 0H164.156C73.64 0 0 73.64 0 164.156v222.722c0 90.516 73.64 164.156 164.156 164.156h222.722c90.516 0 164.156-73.64 164.156-164.156V164.156C551.033 73.64 477.393 0 386.878 0zM495.6 386.878c0 60.045-48.677 108.722-108.722 108.722H164.156c-60.045 0-108.722-48.677-108.722-108.722V164.156c0-60.046 48.677-108.722 108.722-108.722h222.722c60.045 0 108.722 48.676 108.722 108.722v222.722z" fill="url(#ea)"/><linearGradient id="eb" gradientUnits="userSpaceOnUse" x1="275.517" y1="4.571" x2="275.517" y2="549.72" gradientTransform="matrix(1 0 0 -1 0 554)"><stop offset="0" stop-color="#fff"/><stop offset=".3" stop-color="#fff"/><stop offset=".6" stop-color="#fff"/><stop offset="1" stop-color="#fff"/></linearGradient><path d="M275.517 133C196.933 133 133 196.933 133 275.516s63.933 142.517 142.517 142.517S418.034 354.1 418.034 275.516 354.101 133 275.517 133zm0 229.6c-48.095 0-87.083-38.988-87.083-87.083s38.989-87.083 87.083-87.083c48.095 0 87.083 38.988 87.083 87.083 0 48.094-38.989 87.083-87.083 87.083z" fill="url(#eb)"/><linearGradient id="ec" gradientUnits="userSpaceOnUse" x1="418.306" y1="4.571" x2="418.306" y2="549.72" gradientTransform="matrix(1 0 0 -1 0 554)"><stop offset="0" stop-color="#fff"/><stop offset=".3" stop-color="#fff"/><stop offset=".6" stop-color="#fff"/><stop offset="1" stop-color="#fff"/></linearGradient><circle cx="418.306" cy="134.072" r="34.149" fill="url(#ec)"/></svg><svg fill="#003873" viewBox="0 0 30 30" id="search" xmlns="http://www.w3.org/2000/svg"><path d="M13 3C7.489 3 3 7.489 3 13s4.489 10 10 10a9.947 9.947 0 006.322-2.264l5.971 5.971a1 1 0 101.414-1.414l-5.97-5.97A9.947 9.947 0 0023 13c0-5.511-4.489-10-10-10zm0 2c4.43 0 8 3.57 8 8s-3.57 8-8 8-8-3.57-8-8 3.57-8 8-8z"/></svg><svg fill="#fff" viewBox="0 0 50 50" id="tube" xmlns="http://www.w3.org/2000/svg"><path d="M42.042 13.856C43.773 15.577 44 18.311 44 25s-.227 9.423-1.958 11.144C40.311 37.864 38.508 38 25 38s-15.311-.136-17.042-1.856S6 31.689 6 25s.227-9.423 1.958-11.144S11.492 12 25 12s15.311.136 17.042 1.856zM21.76 30.933l9.717-5.63-9.717-5.543v11.173z"/></svg></svg>